# xmcd CD database file
#
# Track frame offsets:
#	150
#	11955
#	23180
#	36382
#	49912
#	62422
#	72137
#	84565
#	95645
#	107315
#	119732
#	130275
#	139995
#	150985
#
# Disc length: 2160 seconds
#
# Revision: 0
# Processed by: cddbd v1.5.1PL2 Copyright (c) Steve Scherf et al.
# Submitted via: CD2WAV32(JP) R3.22
#
DISCID=c0086e0e
DTITLE=Various Artist - Hits and More ! Vee-Jay Singles 1953-1964 Blues and Soul Records No.67 Special Sampler CD
DYEAR=2006
DGENRE=Blues
TTITLE0=The Spaniels - Baby It's You [Vj101]
TTITLE1=The El Dorados - I'll Be Forever Loving You [Vj165]
TTITLE2=The Dells - Oh What A Nite [Vj204]
TTITLE3=The Staple Singers - Uncloudy Day [Vj224]
TTITLE4=Jimmy Reed - Honest I Do [Vj253]
TTITLE5=Gene Allison - You Can Make It If You Try [Vj256]
TTITLE6=Jerry Butler And The Impressions - For Your Precious Love [Vj280]
TTITLE7=Dee Clark - Nobody But You [Abner1019]
TTITLE8=John Lee Hooker - I Love You Honey [Vj293]
TTITLE9=The Five Blind Boys Of Mississippi - In The Hands Of The Lord [Vj868]
TTITLE10=Memphis Slim - The Come Back [Vj343]
TTITLE11=Rosco Gordon - Just A Little Bit [Vj332]
TTITLE12=Gene Chandler - Duke Of Earl [Vj416]
TTITLE13=Jimmy Hughes - Steal Away [Fame 6401 Distributed By VJ]
EXTD=
EXTT0=The Spaniels - Baby It's You [Vj101]
EXTT1=The El Dorados - I'll Be Forever Loving You [Vj165]
EXTT2=The Dells - Oh What A Nite [Vj204]
EXTT3=The Staple Singers - Uncloudy Day [Vj224]
EXTT4=Jimmy Reed - Honest I Do [Vj253]
EXTT5=Gene Allison - You Can Make It If You Try [Vj256]
EXTT6=Jerry Butler And The Impressions - For Your Precious Love [Vj280]
EXTT7=Dee Clark - Nobody But You [Abner1019]
EXTT8=John Lee Hooker - I Love You Honey [Vj293]
EXTT9=The Five Blind Boys Of Mississippi - In The Hands Of The Lord [Vj868]
EXTT10=Memphis Slim - The Come Back [Vj343]
EXTT11=Rosco Gordon - Just A Little Bit [Vj332]
EXTT12=Gene Chandler - Duke Of Earl [Vj416]
EXTT13=Jimmy Hughes - Steal Away [Fame 6401 Distributed By VJ]
PLAYORDER=
